<svg width="24" height="24" viewBox="0 0 24 24" fill="none" xmlns="http://www.w3.org/2000/svg">
<path fill-rule="evenodd" clip-rule="evenodd" d="M2.40001 4.79999C2.18783 4.79999 1.98435 4.88427 1.83432 5.0343C1.68429 5.18433 1.60001 5.38781 1.60001 5.59999C1.60001 5.81216 1.68429 6.01564 1.83432 6.16567C1.98435 6.3157 2.18783 6.39999 2.40001 6.39999H21.6C21.8122 6.39999 22.0157 6.3157 22.1657 6.16567C22.3157 6.01564 22.4 5.81216 22.4 5.59999C22.4 5.38781 22.3157 5.18433 22.1657 5.0343C22.0157 4.88427 21.8122 4.79999 21.6 4.79999H2.40001ZM1.60001 12C1.60001 11.7878 1.68429 11.5843 1.83432 11.4343C1.98435 11.2843 2.18783 11.2 2.40001 11.2H21.6C21.8122 11.2 22.0157 11.2843 22.1657 11.4343C22.3157 11.5843 22.4 11.7878 22.4 12C22.4 12.2122 22.3157 12.4156 22.1657 12.5657C22.0157 12.7157 21.8122 12.8 21.6 12.8H2.40001C2.18783 12.8 1.98435 12.7157 1.83432 12.5657C1.68429 12.4156 1.60001 12.2122 1.60001 12ZM1.60001 18.4C1.60001 18.1878 1.68429 17.9843 1.83432 17.8343C1.98435 17.6843 2.18783 17.6 2.40001 17.6H21.6C21.8122 17.6 22.0157 17.6843 22.1657 17.8343C22.3157 17.9843 22.4 18.1878 22.4 18.4C22.4 18.6122 22.3157 18.8156 22.1657 18.9657C22.0157 19.1157 21.8122 19.2 21.6 19.2H2.40001C2.18783 19.2 1.98435 19.1157 1.83432 18.9657C1.68429 18.8156 1.60001 18.6122 1.60001 18.4Z" fill="#718596"/>
</svg>
