<svg width="16" height="16" viewBox="0 0 16 16" fill="none" xmlns="http://www.w3.org/2000/svg">
<path d="M11.96 11.164C13.0103 10.1131 13.6003 8.68817 13.6003 7.2024C13.6003 5.71663 13.0103 4.29167 11.96 3.2408C11.4401 2.72054 10.8228 2.30783 10.1433 2.02625C9.4638 1.74466 8.7355 1.59973 7.99999 1.59973C7.26448 1.59973 6.53618 1.74466 5.8567 2.02625C5.17723 2.30783 4.5599 2.72054 4.03999 3.2408C2.98966 4.29167 2.39964 5.71663 2.39964 7.2024C2.39964 8.68817 2.98966 10.1131 4.03999 11.164L5.25679 12.3632L6.89119 13.9512L6.99759 14.0456C7.61759 14.548 8.52559 14.516 9.10959 13.9512L11.0576 12.0552L11.96 11.164ZM7.99999 9.6C7.36347 9.6 6.75302 9.34714 6.30293 8.89706C5.85285 8.44697 5.59999 7.83652 5.59999 7.2C5.59999 6.56348 5.85285 5.95303 6.30293 5.50294C6.75302 5.05286 7.36347 4.8 7.99999 4.8C8.63651 4.8 9.24696 5.05286 9.69705 5.50294C10.1471 5.95303 10.4 6.56348 10.4 7.2C10.4 7.83652 10.1471 8.44697 9.69705 8.89706C9.24696 9.34714 8.63651 9.6 7.99999 9.6Z" fill="#227EFF"/>
</svg>
