<svg width="24" height="24" viewBox="0 0 24 24" fill="none" xmlns="http://www.w3.org/2000/svg">
<path d="M7.3476 8.7L8.2968 2.4H3.36L1.2972 7.8C1.2336 7.992 1.2 8.1912 1.2 8.4C1.2 9.7248 2.58 10.8 4.2852 10.8C5.8572 10.8 7.1568 9.8832 7.3476 8.7ZM12 10.8C13.704 10.8 15.0852 9.7248 15.0852 8.4C15.0852 8.3508 15.0816 8.3016 15.0792 8.2548L14.4684 2.4H9.5316L8.9196 8.25C8.9172 8.2992 8.9148 8.3484 8.9148 8.4C8.9148 9.7248 10.296 10.8 12 10.8ZM18 12.0552V16.8H6V12.0624C5.4744 12.252 4.896 12.36 4.2852 12.36C4.0512 12.36 3.8244 12.3324 3.6 12.3012V19.92C3.6 20.844 4.3548 21.6 5.2776 21.6H18.72C19.644 21.6 20.4 20.8428 20.4 19.92V12.3024C20.1732 12.3372 19.9443 12.3569 19.7148 12.3612C19.1297 12.3606 18.5492 12.257 18 12.0552ZM22.704 7.8L20.6388 2.4H15.7032L16.6512 8.6904C16.836 9.8784 18.1356 10.8 19.7148 10.8C21.4188 10.8 22.8 9.7248 22.8 8.4C22.8 8.1912 22.7664 7.992 22.704 7.8Z" fill="white"/>
</svg>
